# xmcd
#
# Track frame offsets:
# 150
# 19976
# 39655
# 78075
# 98678
# 120909
# 140255
# 165555
# 186431
# 205935
# 231995
#
# Disc length: 3472 seconds
#
#
# Revision: 5
# Processed by: cddbd v1.5.2PL0 Copyright (c) Steve Scherf et al.
# Submitted via: FreeRIP 2.945 
#
DISCID=880d8e0b
DTITLE=Various Artist - Smooth Jazz Plays Earth, Wind and Fire
DYEAR=1997
DGENRE=Rhythmic Soul
TTITLE0=Larry Coryell - Evil
TTITLE1=David Benoit witrh Russ Freeman - After The Love Has Gone
TTITLE2=Ramsey Lewis - Sun Goddess
TTITLE3=Mark Johnson - Devotion
TTITLE4=Tom Grant - Fantasy
TTITLE5=Henry Johnson - Shining Star
TTITLE6=Stanley Turrentine - Reasons
TTITLE7=Tuck And Patti - Getaway
TTITLE8=Carl Evans Jr. - Can't Hide Love
TTITLE9=Kim Pensyl - That's The Way Of The World
TTITLE10=John Tesh - September
EXTD=YEAR: 1997
EXTT0=
EXTT1=
EXTT2=
EXTT3=
EXTT4=
EXTT5=
EXTT6=
EXTT7=
EXTT8=
EXTT9=
EXTT10=
PLAYORDER=
